<?xml version="1.0" encoding="utf-8"?>
<!-- Generator: Adobe Illustrator 16.2.1, SVG Export Plug-In . SVG Version: 6.00 Build 0)  -->
<!DOCTYPE svg PUBLIC "-//W3C//DTD SVG 1.1//EN" "http://www.w3.org/Graphics/SVG/1.1/DTD/svg11.dtd">
<svg version="1.1" id="Layer_1" xmlns="http://www.w3.org/2000/svg" xmlns:xlink="http://www.w3.org/1999/xlink" x="0px" y="0px"
	 width="50px" height="50px" viewBox="0 -13.333 50 50" enable-background="new 0 -13.333 50 50" xml:space="preserve">
<g display="none" opacity="0.1">
	<path display="inline" fill="#FFFFFF" stroke="#000000" stroke-miterlimit="10" d="M29.859,17.025v1.078
		c-0.99,0.928-1.831,1.676-2.523,2.242c-0.693,0.568-1.383,1.078-2.07,1.531s-1.258,0.775-1.711,0.969
		c-0.453,0.192-0.841,0.289-1.164,0.289c-0.771,0-1.401-0.287-1.891-0.859s-0.734-1.312-0.734-2.219
		c0-1.041,0.211-2.072,0.633-3.094c0.422-1.021,1.023-2.075,1.805-3.164c0.781-1.088,1.76-2.31,2.938-3.664
		c0.875-1,1.312-1.562,1.312-1.688c0-0.073-0.026-0.135-0.078-0.188c-0.052-0.052-0.109-0.078-0.172-0.078
		c-0.198,0-0.808,0.438-1.828,1.312c-1.021,0.875-2.331,2.162-3.93,3.859c-1.599,1.698-3.326,3.718-5.18,6.062
		c-0.104,0.125-0.435,0.55-0.992,1.273c-0.558,0.724-0.951,1.194-1.18,1.414c-0.229,0.219-0.427,0.328-0.594,0.328
		c-0.292,0-0.544-0.295-0.758-0.884c-0.214-0.588-0.32-1.216-0.32-1.883c0-0.406,0.133-0.845,0.398-1.312
		c0.265-0.469,0.844-1.311,1.734-2.523c0.891-1.213,1.627-2.237,2.211-3.07c0.583-0.833,1.224-1.844,1.922-3.031
		c0.489-0.823,0.852-1.479,1.086-1.969c0.234-0.489,0.352-0.922,0.352-1.297c0-0.323-0.094-0.484-0.281-0.484
		c-0.396,0-1.141,0.529-2.234,1.586c-1.094,1.058-2.445,2.628-4.055,4.711c-1.609,2.083-3.289,4.496-5.039,7.234
		c-0.573,0.938-0.979,1.568-1.219,1.891c-0.24,0.324-0.505,0.484-0.797,0.484c-0.365,0-0.706-0.388-1.023-1.164
		C4.158,19.945,4,19.318,4,18.838c0-0.156,0.062-0.328,0.188-0.516c1.375-1.833,2.505-3.391,3.391-4.672
		c0.885-1.281,1.672-2.497,2.359-3.648c0.688-1.151,1.188-2.099,1.5-2.844c0.312-0.745,0.469-1.331,0.469-1.758
		c0-0.448-0.203-0.672-0.609-0.672c-0.333,0-0.901,0.214-1.703,0.641C8.791,5.797,7.778,6.38,6.554,7.12
		C5.33,7.859,4.348,8.424,3.609,8.815c-0.74,0.391-1.292,0.586-1.656,0.586c-0.344,0-0.516-0.192-0.516-0.578
		c0-0.219,0.073-0.721,0.219-1.508c0.146-0.786,0.297-1.341,0.453-1.664c0.219-0.417,0.778-0.969,1.68-1.656
		C4.69,3.307,5.187,2.964,5.281,2.964c0.083,0,0.125,0.037,0.125,0.109c0,0.042-0.042,0.104-0.125,0.188
		C4.854,3.604,4.536,3.885,4.328,4.104C4.119,4.323,3.989,4.562,3.937,4.823c1.906-1.146,3.612-2.018,5.117-2.617
		c1.505-0.599,2.549-0.898,3.133-0.898c0.292,0,0.567,0.195,0.828,0.586c0.26,0.391,0.481,0.844,0.664,1.359
		c0.182,0.516,0.273,0.847,0.273,0.992c0,0.531-0.136,1.159-0.406,1.883c-0.271,0.724-0.638,1.565-1.102,2.523
		c-0.464,0.958-1.039,2.156-1.727,3.594c0.542-0.698,1.057-1.344,1.547-1.938c0.489-0.594,0.977-1.172,1.461-1.734
		c0.484-0.562,0.977-1.13,1.477-1.703c0.677-0.781,1.438-1.528,2.281-2.242c0.844-0.713,1.633-1.297,2.367-1.75
		s1.231-0.68,1.492-0.68c0.364,0,0.69,0.201,0.977,0.602c0.286,0.401,0.43,0.831,0.43,1.289c0,0.302-0.198,0.88-0.594,1.734
		c-0.396,0.854-0.974,1.948-1.734,3.281c-0.761,1.333-1.766,3.052-3.016,5.156c1.188-1.26,2.422-2.557,3.703-3.891
		c1.281-1.333,2.234-2.307,2.859-2.922c0.625-0.614,1.146-1.083,1.562-1.406c0.573-0.438,1.148-0.909,1.727-1.414
		c0.578-0.505,1.034-0.903,1.367-1.195s0.63-0.516,0.891-0.672c0.26-0.156,0.5-0.234,0.719-0.234c0.271,0,0.612,0.312,1.023,0.938
		c0.411,0.625,0.617,1.026,0.617,1.203c0,0.219-0.123,0.479-0.367,0.781c-0.245,0.302-0.753,0.865-1.523,1.688
		c-1.417,1.521-2.646,3.055-3.688,4.602c-1.042,1.547-1.831,2.958-2.367,4.234c-0.537,1.276-0.805,2.284-0.805,3.023
		c0,0.458,0.086,0.792,0.258,1c0.172,0.208,0.44,0.312,0.805,0.312c0.333,0,0.643-0.062,0.93-0.188
		c0.286-0.125,0.604-0.303,0.953-0.531c0.349-0.229,0.68-0.447,0.992-0.656c0.438-0.26,0.867-0.539,1.289-0.836
		s0.75-0.531,0.984-0.703S29.744,17.1,29.859,17.025z"/>
	<path display="inline" fill="#FFFFFF" stroke="#000000" stroke-miterlimit="10" d="M36.309,16.026
		c-1.511,2-2.659,3.422-3.445,4.266c-0.787,0.844-1.43,1.267-1.93,1.267c-0.396,0-0.761-0.164-1.094-0.492s-0.591-0.771-0.773-1.328
		c-0.183-0.557-0.273-1.153-0.273-1.789c0-0.417,0.039-0.792,0.117-1.125c0.078-0.333,0.227-0.7,0.445-1.102
		c0.219-0.401,0.508-0.836,0.867-1.305c0.359-0.469,0.799-1,1.32-1.594c0.312-0.364,0.575-0.672,0.789-0.922
		c0.213-0.25,0.422-0.419,0.625-0.508c0.203-0.088,0.534-0.133,0.992-0.133c0.333,0,0.651,0.044,0.953,0.133
		c0.302,0.089,0.453,0.18,0.453,0.273c0,0.188-0.154,0.526-0.461,1.016c-0.308,0.49-0.802,1.086-1.484,1.789
		c-0.683,0.703-1.472,1.394-2.367,2.07c-0.198,0.615-0.297,1.083-0.297,1.406c0,0.447,0.172,0.672,0.516,0.672
		c0.125,0,0.333-0.105,0.625-0.32c0.292-0.213,0.784-0.625,1.477-1.234c0.692-0.608,1.315-1.147,1.867-1.616
		c0.406-0.354,0.877-0.883,1.414-1.586c0.536-0.703,0.971-1.231,1.305-1.586c0.771-0.812,1.297-1.341,1.578-1.586
		c0.281-0.245,0.552-0.367,0.812-0.367c0.25,0,0.419,0.078,0.508,0.234c0.088,0.156,0.133,0.474,0.133,0.953
		c0,0.219-0.021,0.396-0.062,0.531c-0.042,0.136-0.128,0.31-0.258,0.523c-0.13,0.214-0.394,0.607-0.789,1.18
		c-0.396,0.573-0.865,1.25-1.406,2.031c-0.292,0.417-0.547,0.874-0.766,1.368c-0.219,0.494-0.328,0.866-0.328,1.116
		c0,0.542,0.213,0.812,0.641,0.812c0.354,0,0.766-0.146,1.234-0.438c0.469-0.292,1.188-0.816,2.156-1.578v1.047
		c-1.219,1.125-2.12,1.943-2.703,2.453c-0.583,0.512-1.089,0.896-1.516,1.156c-0.427,0.262-0.833,0.391-1.219,0.391
		c-0.875,0-1.312-0.521-1.312-1.562c0-0.396,0.13-0.931,0.391-1.603C35.304,18.268,35.726,17.297,36.309,16.026z"/>
	<path display="inline" fill="#FFFFFF" stroke="#000000" stroke-miterlimit="10" d="M45.946,8.979h0.672
		c0.552-0.989,1.052-1.69,1.5-2.102c0.448-0.411,0.958-0.617,1.531-0.617c0.573,0,0.859,0.13,0.859,0.391
		c0,0.125-0.224,0.464-0.672,1.016c-0.448,0.552-0.787,1.016-1.016,1.391c0.354,0.042,0.669,0.078,0.945,0.109
		c0.276,0.031,0.492,0.058,0.648,0.078c-0.594,1.104-1.339,2.234-2.234,3.391c-0.292-0.021-0.537-0.039-0.734-0.055
		c-0.198-0.016-0.398-0.031-0.602-0.047c-0.204-0.016-0.451-0.034-0.742-0.055c-0.562,0.906-1.034,1.716-1.414,2.43
		c-0.38,0.714-0.672,1.366-0.875,1.961c-0.203,0.594-0.305,1.155-0.305,1.688c0,0.719,0.286,1.077,0.859,1.077
		c0.396,0,0.914-0.211,1.555-0.633s1.497-1.069,2.57-1.944v1.047c-2.812,3.052-4.891,4.578-6.234,4.578
		c-0.469,0-0.847-0.184-1.133-0.548c-0.287-0.364-0.43-0.833-0.43-1.405c0-0.386,0.081-0.845,0.242-1.375
		c0.161-0.531,0.45-1.334,0.867-2.406c-0.146,0.125-0.284,0.248-0.414,0.367c-0.13,0.119-0.25,0.229-0.359,0.328
		c-0.109,0.099-0.227,0.203-0.352,0.312s-0.25,0.222-0.375,0.336v-1.078c1.094-0.917,2.417-2.526,3.969-4.828
		c-0.156-0.01-0.302-0.018-0.438-0.023c-0.136-0.005-0.297-0.008-0.484-0.008c-0.615,0-1.073,0.042-1.375,0.125
		c-0.125,0.031-0.242,0.065-0.352,0.102c-0.109,0.037-0.185,0.055-0.227,0.055s-0.062-0.031-0.062-0.094
		c0-0.344,0.213-0.859,0.641-1.547c0.344-0.583,0.669-1.016,0.977-1.297c0.307-0.281,0.682-0.471,1.125-0.57
		C44.521,9.029,45.144,8.979,45.946,8.979z"/>
	<path display="inline" fill="#FFFFFF" stroke="#000000" stroke-miterlimit="10" d="M55.021,16.026c-1.512,2-2.66,3.422-3.445,4.266
		c-0.787,0.844-1.43,1.267-1.93,1.267c-0.396,0-0.761-0.164-1.094-0.492s-0.591-0.771-0.773-1.328
		c-0.183-0.557-0.273-1.153-0.273-1.789c0-0.417,0.039-0.792,0.117-1.125s0.227-0.7,0.445-1.102
		c0.219-0.401,0.508-0.836,0.867-1.305s0.799-1,1.32-1.594c0.312-0.364,0.575-0.672,0.789-0.922c0.213-0.25,0.422-0.419,0.625-0.508
		c0.203-0.088,0.534-0.133,0.992-0.133c0.333,0,0.651,0.044,0.952,0.133c0.303,0.089,0.453,0.18,0.453,0.273
		c0,0.188-0.153,0.526-0.461,1.016c-0.308,0.49-0.801,1.086-1.483,1.789c-0.683,0.703-1.472,1.394-2.367,2.07
		c-0.198,0.615-0.297,1.083-0.297,1.406c0,0.447,0.172,0.672,0.516,0.672c0.125,0,0.333-0.105,0.625-0.32
		c0.292-0.213,0.784-0.625,1.477-1.234c0.692-0.608,1.314-1.147,1.867-1.616c0.406-0.354,0.877-0.883,1.414-1.586
		c0.535-0.703,0.971-1.231,1.305-1.586c0.771-0.812,1.297-1.341,1.578-1.586s0.552-0.367,0.812-0.367
		c0.25,0,0.419,0.078,0.509,0.234c0.088,0.156,0.133,0.474,0.133,0.953c0,0.219-0.021,0.396-0.062,0.531
		c-0.042,0.136-0.128,0.31-0.258,0.523c-0.13,0.214-0.395,0.607-0.789,1.18c-0.396,0.573-0.865,1.25-1.406,2.031
		c-0.291,0.417-0.547,0.874-0.766,1.368s-0.328,0.866-0.328,1.116c0,0.542,0.213,0.812,0.641,0.812c0.354,0,0.767-0.146,1.234-0.438
		c0.469-0.292,1.188-0.816,2.156-1.578v1.047c-1.219,1.125-2.12,1.943-2.703,2.453c-0.583,0.512-1.089,0.896-1.516,1.156
		c-0.428,0.262-0.834,0.391-1.22,0.391c-0.875,0-1.312-0.521-1.312-1.562c0-0.396,0.13-0.931,0.391-1.603
		C54.016,18.268,54.438,17.297,55.021,16.026z"/>
	<path display="inline" fill="#FFFFFF" stroke="#000000" stroke-miterlimit="10" d="M61.002,14.292
		c1.583-1.438,3.12-2.505,4.609-3.203c1.488-0.698,2.641-1.047,3.453-1.047c0.219,0,0.422,0.091,0.608,0.273
		c0.188,0.183,0.336,0.394,0.445,0.633c0.108,0.24,0.164,0.417,0.164,0.531c0,0.188-0.073,0.326-0.22,0.414
		c-0.146,0.089-0.4,0.195-0.766,0.32c0.073,0.167,0.167,0.38,0.281,0.641c0.113,0.261,0.203,0.472,0.266,0.633
		c0.062,0.162,0.094,0.305,0.094,0.43c0,0.25-0.252,0.716-0.758,1.398c-0.505,0.683-0.859,1.185-1.062,1.508
		c-0.203,0.323-0.306,0.719-0.306,1.188c0,0.771,0.354,1.156,1.062,1.156c0.729,0,1.87-0.683,3.422-2.047v0.953
		c-2.636,2.927-4.521,4.391-5.656,4.391c-0.406,0-0.695-0.133-0.867-0.397c-0.172-0.266-0.258-0.659-0.258-1.181
		c0-0.823,0.297-2.016,0.892-3.577c-1.521,1.688-2.651,2.887-3.392,3.602c-0.74,0.714-1.349,1.07-1.828,1.07
		c-0.229,0-0.516-0.198-0.858-0.595c-0.345-0.396-0.647-0.909-0.914-1.538c-0.267-0.631-0.397-1.285-0.397-1.962
		c0-0.489,0.047-0.897,0.141-1.227s0.275-0.664,0.547-1.008C59.977,15.307,60.409,14.854,61.002,14.292z M68.486,12.573
		c-2.707,1.24-4.637,2.292-5.788,3.156c-1.151,0.865-1.728,1.755-1.728,2.671c0,0.334,0.057,0.607,0.172,0.82
		c0.114,0.215,0.271,0.32,0.469,0.32c0.115,0,0.318-0.073,0.609-0.219c1.094-0.646,2.094-1.487,3-2.523
		C66.127,15.763,67.216,14.354,68.486,12.573z"/>
	<path display="inline" fill="#FFFFFF" stroke="#000000" stroke-miterlimit="10" d="M78.828,16.917v1.156
		C76.65,20.959,74.88,22.4,73.516,22.4c-0.74,0-1.32-0.402-1.742-1.211c-0.422-0.807-0.633-1.866-0.633-3.18
		c0-1.062,0.25-2.325,0.75-3.789c0.5-1.463,1.17-2.948,2.008-4.453s1.709-2.817,2.609-3.938c0.901-1.12,1.737-1.903,2.508-2.352
		c0.312-0.188,0.558-0.281,0.734-0.281c0.219,0,0.364,0.097,0.438,0.289c0.074,0.193,0.109,0.523,0.109,0.992
		c0,1.448-0.589,3.227-1.766,5.336c-1.178,2.109-2.818,4.263-4.922,6.461c-0.104,0.541-0.156,0.957-0.156,1.25
		c0,0.666,0.143,1.207,0.43,1.625c0.286,0.416,0.686,0.625,1.195,0.625c0.26,0,0.542-0.103,0.844-0.306
		c0.303-0.202,0.62-0.456,0.953-0.758C77.208,18.412,77.859,17.812,78.828,16.917z M74.156,14.104
		c0.542-0.531,1.064-1.135,1.57-1.812c0.504-0.677,0.98-1.401,1.43-2.172c0.447-0.771,0.799-1.463,1.055-2.078
		c0.255-0.614,0.383-1.078,0.383-1.391c0-0.239-0.082-0.359-0.25-0.359c-0.062,0-0.183,0.058-0.359,0.172
		c-0.635,0.521-1.348,1.539-2.141,3.055C75.051,11.034,74.488,12.562,74.156,14.104z"/>
	<path display="inline" fill="#FFFFFF" stroke="#000000" stroke-miterlimit="10" d="M85.355,17.088v1.141
		c-1.01,1.303-1.953,2.285-2.828,2.945c-0.875,0.662-1.619,0.992-2.233,0.992c-0.854,0-1.489-0.448-1.905-1.344
		c-0.418-0.896-0.625-1.875-0.625-2.938c0-0.405,0.041-0.794,0.125-1.164c0.082-0.37,0.182-0.674,0.297-0.914
		c0.113-0.239,0.328-0.614,0.641-1.125c1.479-2.302,2.833-3.453,4.062-3.453c0.635,0,0.952,0.245,0.952,0.734
		c0,0.333-0.206,0.854-0.616,1.562c-0.412,0.708-0.779,1.214-1.103,1.516c-0.906,0.875-1.498,1.483-1.772,1.828
		c-0.276,0.344-0.414,0.733-0.414,1.172c0,0.375,0.141,0.688,0.422,0.938s0.646,0.375,1.094,0.375c0.488,0,1.027-0.181,1.617-0.539
		C83.654,18.456,84.418,17.88,85.355,17.088z M84.293,10.104c-0.261,0-0.508-0.099-0.742-0.297C83.316,9.609,83.2,9.359,83.2,9.057
		c0-0.458,0.219-0.969,0.655-1.531c0.438-0.562,0.892-0.844,1.359-0.844c0.312,0,0.573,0.097,0.781,0.289
		c0.208,0.193,0.312,0.472,0.312,0.836c0,0.448-0.215,0.943-0.642,1.484C85.241,9.833,84.783,10.104,84.293,10.104z"/>
	<path display="inline" fill="#FFFFFF" stroke="#000000" stroke-miterlimit="10" d="M89.898,8.979h0.672
		c0.553-0.989,1.053-1.69,1.5-2.102c0.449-0.411,0.959-0.617,1.531-0.617c0.573,0,0.859,0.13,0.859,0.391
		c0,0.125-0.225,0.464-0.672,1.016c-0.448,0.552-0.787,1.016-1.016,1.391c0.354,0.042,0.668,0.078,0.944,0.109
		s0.492,0.058,0.648,0.078c-0.595,1.104-1.339,2.234-2.234,3.391c-0.292-0.021-0.536-0.039-0.733-0.055
		C91.2,12.565,91,12.55,90.796,12.534c-0.204-0.016-0.45-0.034-0.741-0.055c-0.562,0.906-1.035,1.716-1.414,2.43
		c-0.381,0.714-0.673,1.366-0.875,1.961c-0.203,0.594-0.306,1.155-0.306,1.688c0,0.719,0.286,1.077,0.858,1.077
		c0.396,0,0.914-0.211,1.556-0.633s1.497-1.069,2.569-1.944v1.047c-2.812,3.052-4.891,4.578-6.233,4.578
		c-0.469,0-0.847-0.184-1.133-0.548c-0.287-0.364-0.431-0.833-0.431-1.405c0-0.386,0.082-0.845,0.242-1.375
		c0.161-0.531,0.45-1.334,0.867-2.406c-0.146,0.125-0.283,0.248-0.414,0.367c-0.13,0.119-0.25,0.229-0.359,0.328
		c-0.108,0.099-0.227,0.203-0.352,0.312s-0.25,0.222-0.375,0.336v-1.078c1.094-0.917,2.417-2.526,3.969-4.828
		c-0.156-0.01-0.302-0.018-0.438-0.023c-0.137-0.005-0.297-0.008-0.484-0.008c-0.615,0-1.072,0.042-1.375,0.125
		c-0.125,0.031-0.242,0.065-0.352,0.102s-0.186,0.055-0.227,0.055c-0.043,0-0.062-0.031-0.062-0.094
		c0-0.344,0.213-0.859,0.641-1.547c0.344-0.583,0.67-1.016,0.977-1.297c0.308-0.281,0.683-0.471,1.125-0.57
		C88.475,9.029,89.098,8.979,89.898,8.979z"/>
	<path display="inline" fill="#FFFFFF" stroke="#000000" stroke-miterlimit="10" d="M98.818,17.698l-2.781,2.358
		c-1.323,1.156-2.208,1.734-2.656,1.734c-0.406,0-0.833-0.466-1.281-1.398c-0.447-0.932-0.672-1.746-0.672-2.444
		c0-0.595,0.092-1.097,0.273-1.509c0.182-0.411,0.497-0.944,0.945-1.602c0.635-0.885,1.244-1.635,1.828-2.25
		c0.582-0.614,1.099-1.091,1.547-1.43c0.447-0.338,0.76-0.508,0.938-0.508c0.281,0,0.555,0.146,0.82,0.438s0.398,0.594,0.398,0.906
		c0,0.198-0.145,0.516-0.431,0.953c-0.287,0.438-0.74,0.992-1.358,1.664c-0.621,0.672-1.482,1.477-2.586,2.415l-0.298,0.858
		c-0.083,0.167-0.125,0.312-0.125,0.438c0,0.281,0.142,0.422,0.423,0.422c0.291,0,0.977-0.37,2.055-1.109
		c1.078-0.738,2.246-1.734,3.508-2.984c0.488-0.489,0.896-0.922,1.219-1.297c0.323-0.375,0.614-0.727,0.875-1.055
		c0.26-0.328,0.477-0.575,0.648-0.742s0.324-0.255,0.461-0.266c0.26-0.031,0.463,0.078,0.609,0.328
		c0.146,0.25,0.219,0.62,0.219,1.109c0,0.281-0.125,0.633-0.375,1.055c-0.25,0.422-0.719,1.141-1.406,2.156
		s-1.373,2.068-2.055,3.156c-0.684,1.089-1.379,2.315-2.086,3.681c0.03-0.031,0.352-0.344,0.961-0.938
		c0.608-0.594,1.252-1.213,1.93-1.858c0.677-0.646,1.234-1.164,1.672-1.556c0.438-0.391,0.984-0.846,1.641-1.366v1.047
		c-1.406,1.511-2.68,2.942-3.82,4.297c-1.14,1.354-2.021,2.438-2.641,3.25c-0.619,0.812-0.982,1.285-1.086,1.422
		c-0.281,0.363-0.533,0.705-0.758,1.023c-0.225,0.316-0.412,0.562-0.562,0.733s-0.272,0.258-0.367,0.258
		c-0.219,0-0.413-0.216-0.586-0.647c-0.172-0.434-0.258-0.815-0.258-1.148c0-0.302,0.058-0.568,0.172-0.797
		C94.521,24.807,96.204,21.875,98.818,17.698z"/>
</g>
<g>
	<g>
		<g>
			<path fill="#BA1075" d="M46.651,18.779v1.77c-1.625,1.523-3.004,2.751-4.141,3.681c-1.137,0.934-2.27,1.77-3.397,2.514
				c-1.127,0.743-2.064,1.272-2.808,1.59c-0.744,0.314-1.38,0.475-1.911,0.475c-1.266,0-2.299-0.472-3.104-1.41
				c-0.804-0.939-1.205-2.153-1.205-3.643c0-1.71,0.346-3.401,1.039-5.077c0.693-1.676,1.68-3.407,2.963-5.194
				c1.283-1.786,2.889-3.792,4.823-6.014c1.436-1.642,2.153-2.564,2.153-2.771c0-0.12-0.042-0.222-0.128-0.309
				c-0.085-0.085-0.179-0.128-0.282-0.128c-0.325,0-1.327,0.719-3.001,2.154c-1.676,1.436-3.826,3.549-6.45,6.334
				c-2.625,2.787-5.459,6.104-8.502,9.95c-0.17,0.206-0.714,0.903-1.628,2.089c-0.916,1.188-1.561,1.962-1.937,2.321
				c-0.376,0.36-0.701,0.538-0.975,0.538c-0.479,0-0.893-0.482-1.244-1.449c-0.351-0.965-0.525-1.995-0.525-3.092
				c0-0.665,0.218-1.385,0.653-2.152c0.435-0.768,1.385-2.149,2.846-4.141c1.463-1.991,2.671-3.672,3.629-5.039
				c0.957-1.368,2.01-3.027,3.155-4.976c0.803-1.351,1.398-2.428,1.782-3.231c0.385-0.803,0.578-1.513,0.578-2.129
				c0-0.53-0.154-0.795-0.461-0.795c-0.65,0-1.873,0.869-3.667,2.603c-1.796,1.737-4.014,4.314-6.656,7.733
				c-2.641,3.419-5.398,7.377-8.271,11.874c-0.94,1.539-1.607,2.574-2,3.104c-0.394,0.53-0.829,0.795-1.309,0.795
				c-0.599,0-1.159-0.638-1.679-1.911c-0.521-1.272-0.783-2.302-0.783-3.09c0-0.257,0.102-0.539,0.309-0.847
				c2.257-3.009,4.112-5.567,5.566-7.669c1.453-2.103,2.744-4.099,3.872-5.988c1.129-1.89,1.95-3.445,2.462-4.668
				s0.77-2.185,0.77-2.885c0-0.736-0.333-1.104-1-1.104c-0.546,0-1.479,0.352-2.795,1.052c-1.32,0.706-2.982,1.663-4.99,2.875
				C6.39,3.734,4.78,4.662,3.565,5.304C2.353,5.943,1.447,6.265,0.847,6.265C0.282,6.265,0,5.95,0,5.316
				c0-0.36,0.12-1.184,0.36-2.475C0.6,1.551,0.847,0.64,1.103,0.11c0.36-0.684,1.279-1.591,2.757-2.72
				c1.479-1.129,2.295-1.691,2.45-1.691c0.136,0,0.205,0.061,0.205,0.179c0,0.069-0.069,0.17-0.205,0.309
				C5.608-3.25,5.087-2.789,4.746-2.43C4.404-2.07,4.189-1.678,4.104-1.249c3.13-1.881,5.929-3.314,8.401-4.298
				c2.47-0.982,4.184-1.474,5.142-1.474c0.479,0,0.931,0.321,1.359,0.962c0.427,0.642,0.789,1.386,1.09,2.231
				c0.299,0.846,0.448,1.39,0.448,1.628c0,0.872-0.223,1.903-0.666,3.091c-0.445,1.188-1.047,2.568-1.809,4.141
				c-0.762,1.572-1.706,3.538-2.835,5.898c0.89-1.145,1.734-2.206,2.539-3.181c0.802-0.975,1.604-1.924,2.398-2.846
				c0.794-0.922,1.604-1.854,2.424-2.795c1.111-1.282,2.36-2.508,3.744-3.68c1.386-1.171,2.681-2.129,3.886-2.872
				c1.204-0.744,2.021-1.117,2.449-1.117c0.597,0,1.132,0.33,1.604,0.988c0.469,0.658,0.705,1.364,0.705,2.116
				c0,0.496-0.324,1.444-0.975,2.846c-0.65,1.402-1.599,3.197-2.846,5.385c-1.25,2.188-2.899,5.01-4.951,8.463
				c1.95-2.068,3.975-4.197,6.078-6.387c2.103-2.188,3.667-3.787,4.693-4.796c1.026-1.007,1.881-1.778,2.563-2.307
				c0.94-0.72,1.884-1.493,2.835-2.321c0.948-0.83,1.697-1.482,2.243-1.962c0.547-0.479,1.034-0.846,1.463-1.103
				c0.426-0.257,0.82-0.384,1.18-0.384c0.445,0,1.005,0.512,1.68,1.54c0.674,1.026,1.012,1.684,1.012,1.975
				c0,0.359-0.202,0.785-0.602,1.281c-0.402,0.496-1.236,1.419-2.5,2.771c-2.326,2.496-4.343,5.015-6.053,7.553
				c-1.71,2.539-3.005,4.855-3.885,6.95c-0.881,2.094-1.321,3.749-1.321,4.963c0,0.75,0.141,1.298,0.424,1.641
				c0.282,0.34,0.722,0.512,1.321,0.512c0.546,0,1.056-0.101,1.527-0.31c0.47-0.205,0.991-0.493,1.564-0.87
				c0.572-0.377,1.115-0.736,1.627-1.077c0.719-0.427,1.423-0.885,2.116-1.372c0.692-0.487,1.231-0.871,1.615-1.154
				C46.176,19.099,46.464,18.9,46.651,18.779z"/>
		</g>
		<defs>
			<filter id="Adobe_OpacityMaskFilter" filterUnits="userSpaceOnUse" x="0" y="-7.021" width="49.958" height="35.828">
				
					<feColorMatrix  type="matrix" values="-1 0 0 0 1  0 -1 0 0 1  0 0 -1 0 1  0 0 0 1 0" color-interpolation-filters="sRGB" result="source"/>
			</filter>
		</defs>
		<mask maskUnits="userSpaceOnUse" x="0" y="-7.021" width="49.958" height="35.828" id="SVGID_1_">
			<g filter="url(#Adobe_OpacityMaskFilter)">
				<image overflow="visible" width="54" height="41" xlink:href="E32A31C0CBD13FA9.jpg"  transform="matrix(1 0 0 1 -2 -9.875)">
				</image>
			</g>
		</mask>
		<g mask="url(#SVGID_1_)">
			<path fill="#840D60" d="M46.651,18.779v1.77c-1.625,1.523-3.004,2.751-4.141,3.681c-1.137,0.934-2.27,1.77-3.397,2.514
				c-1.127,0.743-2.064,1.272-2.808,1.59c-0.744,0.314-1.38,0.475-1.911,0.475c-1.266,0-2.299-0.472-3.104-1.41
				c-0.804-0.939-1.205-2.153-1.205-3.643c0-1.71,0.346-3.401,1.039-5.077c0.693-1.676,1.68-3.407,2.963-5.194
				c1.283-1.786,2.889-3.792,4.823-6.014c1.436-1.642,2.153-2.564,2.153-2.771c0-0.12-0.042-0.222-0.128-0.309
				c-0.085-0.085-0.179-0.128-0.282-0.128c-0.325,0-1.327,0.719-3.001,2.154c-1.676,1.436-3.826,3.549-6.45,6.334
				c-2.625,2.787-5.459,6.104-8.502,9.95c-0.17,0.206-0.714,0.903-1.628,2.089c-0.916,1.188-1.561,1.962-1.937,2.321
				c-0.376,0.36-0.701,0.538-0.975,0.538c-0.479,0-0.893-0.482-1.244-1.449c-0.351-0.965-0.525-1.995-0.525-3.092
				c0-0.665,0.218-1.385,0.653-2.152c0.435-0.768,1.385-2.149,2.846-4.141c1.463-1.991,2.671-3.672,3.629-5.039
				c0.957-1.368,2.01-3.027,3.155-4.976c0.803-1.351,1.398-2.428,1.782-3.231c0.385-0.803,0.578-1.513,0.578-2.129
				c0-0.53-0.154-0.795-0.461-0.795c-0.65,0-1.873,0.869-3.667,2.603c-1.796,1.737-4.014,4.314-6.656,7.733
				c-2.641,3.419-5.398,7.377-8.271,11.874c-0.94,1.539-1.607,2.574-2,3.104c-0.394,0.53-0.829,0.795-1.309,0.795
				c-0.599,0-1.159-0.638-1.679-1.911c-0.521-1.272-0.783-2.302-0.783-3.09c0-0.257,0.102-0.539,0.309-0.847
				c2.257-3.009,4.112-5.567,5.566-7.669c1.453-2.103,2.744-4.099,3.872-5.988c1.129-1.89,1.95-3.445,2.462-4.668
				s0.77-2.185,0.77-2.885c0-0.736-0.333-1.104-1-1.104c-0.546,0-1.479,0.352-2.795,1.052c-1.32,0.706-2.982,1.663-4.99,2.875
				C6.39,3.734,4.78,4.662,3.565,5.304C2.353,5.943,1.447,6.265,0.847,6.265C0.282,6.265,0,5.95,0,5.316
				c0-0.36,0.12-1.184,0.36-2.475C0.6,1.551,0.847,0.64,1.103,0.11c0.36-0.684,1.279-1.591,2.757-2.72
				c1.479-1.129,2.295-1.691,2.45-1.691c0.136,0,0.205,0.061,0.205,0.179c0,0.069-0.069,0.17-0.205,0.309
				C5.608-3.25,5.087-2.789,4.746-2.43C4.404-2.07,4.189-1.678,4.104-1.249c3.13-1.881,5.929-3.314,8.401-4.298
				c2.47-0.982,4.184-1.474,5.142-1.474c0.479,0,0.931,0.321,1.359,0.962c0.427,0.642,0.789,1.386,1.09,2.231
				c0.299,0.846,0.448,1.39,0.448,1.628c0,0.872-0.223,1.903-0.666,3.091c-0.445,1.188-1.047,2.568-1.809,4.141
				c-0.762,1.572-1.706,3.538-2.835,5.898c0.89-1.145,1.734-2.206,2.539-3.181c0.802-0.975,1.604-1.924,2.398-2.846
				c0.794-0.922,1.604-1.854,2.424-2.795c1.111-1.282,2.36-2.508,3.744-3.68c1.386-1.171,2.681-2.129,3.886-2.872
				c1.204-0.744,2.021-1.117,2.449-1.117c0.597,0,1.132,0.33,1.604,0.988c0.469,0.658,0.705,1.364,0.705,2.116
				c0,0.496-0.324,1.444-0.975,2.846c-0.65,1.402-1.599,3.197-2.846,5.385c-1.25,2.188-2.899,5.01-4.951,8.463
				c1.95-2.068,3.975-4.197,6.078-6.387c2.103-2.188,3.667-3.787,4.693-4.796c1.026-1.007,1.881-1.778,2.563-2.307
				c0.94-0.72,1.884-1.493,2.835-2.321c0.948-0.83,1.697-1.482,2.243-1.962c0.547-0.479,1.034-0.846,1.463-1.103
				c0.426-0.257,0.82-0.384,1.18-0.384c0.445,0,1.005,0.512,1.68,1.54c0.674,1.026,1.012,1.684,1.012,1.975
				c0,0.359-0.202,0.785-0.602,1.281c-0.402,0.496-1.236,1.419-2.5,2.771c-2.326,2.496-4.343,5.015-6.053,7.553
				c-1.71,2.539-3.005,4.855-3.885,6.95c-0.881,2.094-1.321,3.749-1.321,4.963c0,0.75,0.141,1.298,0.424,1.641
				c0.282,0.34,0.722,0.512,1.321,0.512c0.546,0,1.056-0.101,1.527-0.31c0.47-0.205,0.991-0.493,1.564-0.87
				c0.572-0.377,1.115-0.736,1.627-1.077c0.719-0.427,1.423-0.885,2.116-1.372c0.692-0.487,1.231-0.871,1.615-1.154
				C46.176,19.099,46.464,18.9,46.651,18.779z"/>
		</g>
	</g>
</g>
</svg>
