<?xml version="1.0" encoding="utf-8"?>
<!-- Generator: Adobe Illustrator 16.2.1, SVG Export Plug-In . SVG Version: 6.00 Build 0)  -->
<!DOCTYPE svg PUBLIC "-//W3C//DTD SVG 1.1//EN" "http://www.w3.org/Graphics/SVG/1.1/DTD/svg11.dtd">
<svg version="1.1" id="Layer_1" xmlns="http://www.w3.org/2000/svg" xmlns:xlink="http://www.w3.org/1999/xlink" x="0px" y="0px"
	 width="105px" height="31.25px" viewBox="0 0 105 31.25" enable-background="new 0 0 105 31.25" xml:space="preserve">
<g opacity="0.1">
	<path fill="#FFFFFF" stroke="#000000" stroke-miterlimit="10" d="M29.859,17.026v1.078c-0.99,0.927-1.831,1.675-2.523,2.242
		c-0.693,0.568-1.383,1.078-2.07,1.531s-1.258,0.776-1.711,0.969c-0.453,0.192-0.841,0.289-1.164,0.289
		c-0.771,0-1.401-0.287-1.891-0.859c-0.49-0.573-0.734-1.312-0.734-2.219c0-1.042,0.211-2.073,0.633-3.094
		c0.422-1.021,1.023-2.075,1.805-3.164c0.781-1.088,1.76-2.31,2.938-3.664c0.875-1,1.312-1.562,1.312-1.688
		c0-0.073-0.026-0.135-0.078-0.188c-0.052-0.052-0.109-0.078-0.172-0.078c-0.198,0-0.808,0.438-1.828,1.312
		c-1.021,0.875-2.331,2.162-3.93,3.859c-1.599,1.698-3.326,3.719-5.18,6.062c-0.104,0.125-0.435,0.55-0.992,1.273
		c-0.558,0.724-0.951,1.195-1.18,1.414c-0.229,0.219-0.427,0.328-0.594,0.328c-0.292,0-0.544-0.294-0.758-0.883
		c-0.214-0.588-0.32-1.216-0.32-1.883c0-0.406,0.133-0.844,0.398-1.312s0.844-1.31,1.734-2.523c0.891-1.213,1.627-2.237,2.211-3.07
		c0.583-0.833,1.224-1.844,1.922-3.031c0.489-0.823,0.852-1.479,1.086-1.969c0.234-0.489,0.352-0.922,0.352-1.297
		c0-0.323-0.094-0.484-0.281-0.484c-0.396,0-1.141,0.529-2.234,1.586c-1.094,1.058-2.445,2.628-4.055,4.711
		c-1.609,2.083-3.289,4.495-5.039,7.234c-0.573,0.938-0.979,1.568-1.219,1.891c-0.24,0.323-0.505,0.484-0.797,0.484
		c-0.365,0-0.706-0.388-1.023-1.164C4.158,19.945,4,19.318,4,18.838c0-0.156,0.062-0.328,0.188-0.516
		c1.375-1.833,2.505-3.391,3.391-4.672c0.885-1.281,1.672-2.497,2.359-3.648c0.688-1.151,1.188-2.099,1.5-2.844
		c0.312-0.745,0.469-1.331,0.469-1.758c0-0.448-0.203-0.672-0.609-0.672c-0.333,0-0.901,0.214-1.703,0.641
		C8.791,5.797,7.778,6.38,6.554,7.12C5.33,7.859,4.348,8.424,3.609,8.815c-0.74,0.391-1.292,0.586-1.656,0.586
		c-0.344,0-0.516-0.192-0.516-0.578c0-0.219,0.073-0.721,0.219-1.508c0.146-0.786,0.297-1.341,0.453-1.664
		c0.219-0.417,0.778-0.969,1.68-1.656c0.901-0.688,1.398-1.031,1.492-1.031c0.083,0,0.125,0.037,0.125,0.109
		c0,0.042-0.042,0.104-0.125,0.188C4.854,3.604,4.536,3.885,4.328,4.104C4.119,4.323,3.989,4.562,3.937,4.823
		c1.906-1.146,3.612-2.018,5.117-2.617c1.505-0.599,2.549-0.898,3.133-0.898c0.292,0,0.567,0.195,0.828,0.586
		c0.26,0.391,0.481,0.844,0.664,1.359c0.182,0.516,0.273,0.847,0.273,0.992c0,0.531-0.136,1.159-0.406,1.883
		c-0.271,0.724-0.638,1.565-1.102,2.523c-0.464,0.958-1.039,2.156-1.727,3.594c0.542-0.698,1.057-1.344,1.547-1.938
		c0.489-0.594,0.977-1.172,1.461-1.734s0.977-1.13,1.477-1.703c0.677-0.781,1.438-1.528,2.281-2.242
		c0.844-0.713,1.633-1.297,2.367-1.75s1.231-0.68,1.492-0.68c0.364,0,0.69,0.201,0.977,0.602c0.286,0.401,0.43,0.831,0.43,1.289
		c0,0.302-0.198,0.88-0.594,1.734c-0.396,0.854-0.974,1.948-1.734,3.281c-0.761,1.333-1.766,3.052-3.016,5.156
		c1.188-1.26,2.422-2.557,3.703-3.891c1.281-1.333,2.234-2.307,2.859-2.922c0.625-0.614,1.146-1.083,1.562-1.406
		c0.573-0.438,1.148-0.909,1.727-1.414c0.578-0.505,1.034-0.903,1.367-1.195c0.333-0.292,0.63-0.516,0.891-0.672
		c0.26-0.156,0.5-0.234,0.719-0.234c0.271,0,0.612,0.312,1.023,0.938c0.411,0.625,0.617,1.026,0.617,1.203
		c0,0.219-0.123,0.479-0.367,0.781c-0.245,0.302-0.753,0.865-1.523,1.688c-1.417,1.521-2.646,3.055-3.688,4.602
		c-1.042,1.547-1.831,2.958-2.367,4.234c-0.537,1.276-0.805,2.284-0.805,3.023c0,0.458,0.086,0.792,0.258,1
		c0.172,0.208,0.44,0.312,0.805,0.312c0.333,0,0.643-0.062,0.93-0.188c0.286-0.125,0.604-0.302,0.953-0.531
		c0.349-0.229,0.68-0.448,0.992-0.656c0.438-0.26,0.867-0.539,1.289-0.836s0.75-0.531,0.984-0.703S29.744,17.099,29.859,17.026z"/>
	<path fill="#FFFFFF" stroke="#000000" stroke-miterlimit="10" d="M36.309,16.026c-1.511,2-2.659,3.422-3.445,4.266
		c-0.787,0.844-1.43,1.266-1.93,1.266c-0.396,0-0.761-0.164-1.094-0.492c-0.333-0.328-0.591-0.771-0.773-1.328
		c-0.183-0.557-0.273-1.153-0.273-1.789c0-0.417,0.039-0.792,0.117-1.125c0.078-0.333,0.227-0.7,0.445-1.102
		c0.219-0.401,0.508-0.836,0.867-1.305s0.799-1,1.32-1.594c0.312-0.364,0.575-0.672,0.789-0.922c0.213-0.25,0.422-0.419,0.625-0.508
		c0.203-0.088,0.534-0.133,0.992-0.133c0.333,0,0.651,0.044,0.953,0.133c0.302,0.089,0.453,0.18,0.453,0.273
		c0,0.188-0.154,0.526-0.461,1.016c-0.308,0.49-0.802,1.086-1.484,1.789c-0.683,0.703-1.472,1.394-2.367,2.07
		c-0.198,0.615-0.297,1.083-0.297,1.406c0,0.448,0.172,0.672,0.516,0.672c0.125,0,0.333-0.106,0.625-0.32
		c0.292-0.213,0.784-0.625,1.477-1.234c0.692-0.609,1.315-1.148,1.867-1.617c0.406-0.354,0.877-0.883,1.414-1.586
		c0.536-0.703,0.971-1.231,1.305-1.586c0.771-0.812,1.297-1.341,1.578-1.586c0.281-0.245,0.552-0.367,0.812-0.367
		c0.25,0,0.419,0.078,0.508,0.234c0.088,0.156,0.133,0.474,0.133,0.953c0,0.219-0.021,0.396-0.062,0.531
		c-0.042,0.136-0.128,0.31-0.258,0.523c-0.13,0.214-0.394,0.607-0.789,1.18c-0.396,0.573-0.865,1.25-1.406,2.031
		c-0.292,0.417-0.547,0.873-0.766,1.367c-0.219,0.495-0.328,0.867-0.328,1.117c0,0.542,0.213,0.812,0.641,0.812
		c0.354,0,0.766-0.146,1.234-0.438c0.469-0.292,1.188-0.817,2.156-1.578v1.047c-1.219,1.125-2.12,1.943-2.703,2.453
		c-0.583,0.511-1.089,0.896-1.516,1.156c-0.427,0.261-0.833,0.391-1.219,0.391c-0.875,0-1.312-0.521-1.312-1.562
		c0-0.396,0.13-0.93,0.391-1.602C35.304,18.268,35.726,17.297,36.309,16.026z"/>
	<path fill="#FFFFFF" stroke="#000000" stroke-miterlimit="10" d="M45.946,8.979h0.672c0.552-0.989,1.052-1.69,1.5-2.102
		c0.448-0.411,0.958-0.617,1.531-0.617c0.573,0,0.859,0.13,0.859,0.391c0,0.125-0.224,0.464-0.672,1.016
		c-0.448,0.552-0.787,1.016-1.016,1.391c0.354,0.042,0.669,0.078,0.945,0.109c0.276,0.031,0.492,0.058,0.648,0.078
		c-0.594,1.104-1.339,2.234-2.234,3.391c-0.292-0.021-0.537-0.039-0.734-0.055c-0.198-0.016-0.398-0.031-0.602-0.047
		s-0.451-0.034-0.742-0.055c-0.562,0.906-1.034,1.716-1.414,2.43c-0.38,0.714-0.672,1.367-0.875,1.961s-0.305,1.156-0.305,1.688
		c0,0.719,0.286,1.078,0.859,1.078c0.396,0,0.914-0.211,1.555-0.633s1.497-1.07,2.57-1.945v1.047
		c-2.812,3.052-4.891,4.578-6.234,4.578c-0.469,0-0.847-0.183-1.133-0.547c-0.287-0.364-0.43-0.833-0.43-1.406
		c0-0.385,0.081-0.844,0.242-1.375c0.161-0.531,0.45-1.333,0.867-2.406c-0.146,0.125-0.284,0.248-0.414,0.367
		c-0.13,0.12-0.25,0.229-0.359,0.328c-0.109,0.099-0.227,0.203-0.352,0.312s-0.25,0.222-0.375,0.336v-1.078
		c1.094-0.917,2.417-2.526,3.969-4.828c-0.156-0.01-0.302-0.018-0.438-0.023c-0.136-0.005-0.297-0.008-0.484-0.008
		c-0.615,0-1.073,0.042-1.375,0.125c-0.125,0.031-0.242,0.065-0.352,0.102c-0.109,0.037-0.185,0.055-0.227,0.055
		c-0.042,0-0.062-0.031-0.062-0.094c0-0.344,0.213-0.859,0.641-1.547c0.344-0.583,0.669-1.016,0.977-1.297
		c0.307-0.281,0.682-0.471,1.125-0.57C44.521,9.029,45.144,8.979,45.946,8.979z"/>
	<path fill="#FFFFFF" stroke="#000000" stroke-miterlimit="10" d="M55.021,16.026c-1.511,2-2.659,3.422-3.445,4.266
		c-0.787,0.844-1.43,1.266-1.93,1.266c-0.396,0-0.761-0.164-1.094-0.492c-0.333-0.328-0.591-0.771-0.773-1.328
		c-0.183-0.557-0.273-1.153-0.273-1.789c0-0.417,0.039-0.792,0.117-1.125c0.078-0.333,0.227-0.7,0.445-1.102
		c0.219-0.401,0.508-0.836,0.867-1.305s0.799-1,1.32-1.594c0.312-0.364,0.575-0.672,0.789-0.922c0.213-0.25,0.422-0.419,0.625-0.508
		c0.203-0.088,0.534-0.133,0.992-0.133c0.333,0,0.651,0.044,0.953,0.133c0.302,0.089,0.453,0.18,0.453,0.273
		c0,0.188-0.154,0.526-0.461,1.016c-0.308,0.49-0.802,1.086-1.484,1.789c-0.683,0.703-1.472,1.394-2.367,2.07
		c-0.198,0.615-0.297,1.083-0.297,1.406c0,0.448,0.172,0.672,0.516,0.672c0.125,0,0.333-0.106,0.625-0.32
		c0.292-0.213,0.784-0.625,1.477-1.234c0.692-0.609,1.315-1.148,1.867-1.617c0.406-0.354,0.877-0.883,1.414-1.586
		c0.536-0.703,0.971-1.231,1.305-1.586c0.771-0.812,1.297-1.341,1.578-1.586c0.281-0.245,0.552-0.367,0.812-0.367
		c0.25,0,0.419,0.078,0.508,0.234c0.088,0.156,0.133,0.474,0.133,0.953c0,0.219-0.021,0.396-0.062,0.531
		c-0.042,0.136-0.128,0.31-0.258,0.523c-0.13,0.214-0.394,0.607-0.789,1.18c-0.396,0.573-0.865,1.25-1.406,2.031
		c-0.292,0.417-0.547,0.873-0.766,1.367c-0.219,0.495-0.328,0.867-0.328,1.117c0,0.542,0.213,0.812,0.641,0.812
		c0.354,0,0.766-0.146,1.234-0.438c0.469-0.292,1.188-0.817,2.156-1.578v1.047c-1.219,1.125-2.12,1.943-2.703,2.453
		c-0.583,0.511-1.089,0.896-1.516,1.156c-0.427,0.261-0.833,0.391-1.219,0.391c-0.875,0-1.312-0.521-1.312-1.562
		c0-0.396,0.13-0.93,0.391-1.602C54.016,18.268,54.438,17.297,55.021,16.026z"/>
	<path fill="#FFFFFF" stroke="#000000" stroke-miterlimit="10" d="M61.002,14.292c1.583-1.438,3.12-2.505,4.609-3.203
		c1.489-0.698,2.641-1.047,3.453-1.047c0.219,0,0.422,0.091,0.609,0.273c0.188,0.183,0.336,0.394,0.445,0.633
		c0.109,0.24,0.164,0.417,0.164,0.531c0,0.188-0.073,0.326-0.219,0.414c-0.146,0.089-0.401,0.195-0.766,0.32
		c0.073,0.167,0.167,0.38,0.281,0.641c0.114,0.261,0.203,0.472,0.266,0.633c0.062,0.162,0.094,0.305,0.094,0.43
		c0,0.25-0.253,0.716-0.758,1.398c-0.505,0.683-0.859,1.185-1.062,1.508c-0.203,0.323-0.305,0.719-0.305,1.188
		c0,0.771,0.354,1.156,1.062,1.156c0.729,0,1.87-0.682,3.422-2.047v0.953c-2.636,2.927-4.521,4.391-5.656,4.391
		c-0.406,0-0.695-0.133-0.867-0.398s-0.258-0.659-0.258-1.18c0-0.823,0.297-2.016,0.891-3.578c-1.521,1.688-2.651,2.888-3.391,3.602
		c-0.74,0.714-1.349,1.07-1.828,1.07c-0.229,0-0.516-0.198-0.859-0.594c-0.344-0.396-0.648-0.909-0.914-1.539
		c-0.266-0.63-0.398-1.284-0.398-1.961c0-0.489,0.047-0.898,0.141-1.227s0.276-0.664,0.547-1.008
		C59.976,15.307,60.409,14.854,61.002,14.292z M68.487,12.573c-2.708,1.24-4.638,2.292-5.789,3.156
		c-1.151,0.865-1.727,1.755-1.727,2.672c0,0.333,0.057,0.607,0.172,0.82c0.114,0.214,0.271,0.32,0.469,0.32
		c0.114,0,0.317-0.073,0.609-0.219c1.094-0.646,2.094-1.487,3-2.523C66.127,15.763,67.216,14.354,68.487,12.573z"/>
	<path fill="#FFFFFF" stroke="#000000" stroke-miterlimit="10" d="M78.828,16.917v1.156c-2.177,2.886-3.948,4.328-5.312,4.328
		c-0.74,0-1.32-0.403-1.742-1.211c-0.422-0.807-0.633-1.867-0.633-3.18c0-1.062,0.25-2.325,0.75-3.789
		c0.5-1.463,1.169-2.948,2.008-4.453c0.838-1.505,1.708-2.817,2.609-3.938c0.901-1.12,1.737-1.903,2.508-2.352
		c0.312-0.188,0.557-0.281,0.734-0.281c0.219,0,0.364,0.097,0.438,0.289c0.073,0.193,0.109,0.523,0.109,0.992
		c0,1.448-0.589,3.227-1.766,5.336c-1.177,2.109-2.818,4.263-4.922,6.461c-0.104,0.542-0.156,0.958-0.156,1.25
		c0,0.667,0.143,1.208,0.43,1.625c0.286,0.417,0.685,0.625,1.195,0.625c0.26,0,0.542-0.102,0.844-0.305
		c0.302-0.203,0.62-0.456,0.953-0.758C77.208,18.412,77.859,17.812,78.828,16.917z M74.156,14.104
		c0.542-0.531,1.065-1.135,1.57-1.812c0.505-0.677,0.981-1.401,1.43-2.172c0.448-0.771,0.799-1.463,1.055-2.078
		c0.255-0.614,0.383-1.078,0.383-1.391c0-0.239-0.083-0.359-0.25-0.359c-0.062,0-0.183,0.058-0.359,0.172
		c-0.636,0.521-1.349,1.539-2.141,3.055C75.051,11.034,74.489,12.562,74.156,14.104z"/>
	<path fill="#FFFFFF" stroke="#000000" stroke-miterlimit="10" d="M85.356,17.088v1.141c-1.011,1.302-1.953,2.284-2.828,2.945
		c-0.875,0.662-1.62,0.992-2.234,0.992c-0.854,0-1.49-0.448-1.906-1.344c-0.417-0.896-0.625-1.875-0.625-2.938
		c0-0.406,0.042-0.794,0.125-1.164c0.083-0.37,0.182-0.674,0.297-0.914c0.114-0.239,0.328-0.614,0.641-1.125
		c1.479-2.302,2.833-3.453,4.062-3.453c0.635,0,0.953,0.245,0.953,0.734c0,0.333-0.206,0.854-0.617,1.562
		c-0.412,0.708-0.779,1.214-1.102,1.516c-0.906,0.875-1.498,1.484-1.773,1.828c-0.276,0.344-0.414,0.734-0.414,1.172
		c0,0.375,0.141,0.688,0.422,0.938s0.646,0.375,1.094,0.375c0.489,0,1.028-0.18,1.617-0.539
		C83.655,18.456,84.418,17.88,85.356,17.088z M84.293,10.104c-0.261,0-0.508-0.099-0.742-0.297C83.317,9.609,83.2,9.359,83.2,9.057
		c0-0.458,0.219-0.969,0.656-1.531s0.891-0.844,1.359-0.844c0.312,0,0.573,0.097,0.781,0.289c0.208,0.193,0.312,0.472,0.312,0.836
		c0,0.448-0.214,0.943-0.641,1.484C85.241,9.833,84.783,10.104,84.293,10.104z"/>
	<path fill="#FFFFFF" stroke="#000000" stroke-miterlimit="10" d="M89.899,8.979h0.672c0.552-0.989,1.052-1.69,1.5-2.102
		c0.448-0.411,0.958-0.617,1.531-0.617c0.573,0,0.859,0.13,0.859,0.391c0,0.125-0.224,0.464-0.672,1.016
		c-0.448,0.552-0.787,1.016-1.016,1.391c0.354,0.042,0.669,0.078,0.945,0.109c0.276,0.031,0.492,0.058,0.648,0.078
		c-0.594,1.104-1.339,2.234-2.234,3.391c-0.292-0.021-0.537-0.039-0.734-0.055c-0.198-0.016-0.398-0.031-0.602-0.047
		s-0.451-0.034-0.742-0.055c-0.562,0.906-1.034,1.716-1.414,2.43c-0.38,0.714-0.672,1.367-0.875,1.961s-0.305,1.156-0.305,1.688
		c0,0.719,0.286,1.078,0.859,1.078c0.396,0,0.914-0.211,1.555-0.633s1.497-1.07,2.57-1.945v1.047
		c-2.812,3.052-4.891,4.578-6.234,4.578c-0.469,0-0.847-0.183-1.133-0.547c-0.287-0.364-0.43-0.833-0.43-1.406
		c0-0.385,0.081-0.844,0.242-1.375c0.161-0.531,0.45-1.333,0.867-2.406c-0.146,0.125-0.284,0.248-0.414,0.367
		c-0.13,0.12-0.25,0.229-0.359,0.328c-0.109,0.099-0.227,0.203-0.352,0.312s-0.25,0.222-0.375,0.336v-1.078
		c1.094-0.917,2.417-2.526,3.969-4.828c-0.156-0.01-0.302-0.018-0.438-0.023c-0.136-0.005-0.297-0.008-0.484-0.008
		c-0.615,0-1.073,0.042-1.375,0.125c-0.125,0.031-0.242,0.065-0.352,0.102c-0.109,0.037-0.185,0.055-0.227,0.055
		c-0.042,0-0.062-0.031-0.062-0.094c0-0.344,0.213-0.859,0.641-1.547c0.344-0.583,0.669-1.016,0.977-1.297
		c0.307-0.281,0.682-0.471,1.125-0.57C88.475,9.029,89.097,8.979,89.899,8.979z"/>
	<path fill="#FFFFFF" stroke="#000000" stroke-miterlimit="10" d="M98.818,17.698l-2.781,2.359
		c-1.323,1.156-2.208,1.734-2.656,1.734c-0.406,0-0.833-0.466-1.281-1.398c-0.448-0.932-0.672-1.747-0.672-2.445
		c0-0.594,0.091-1.096,0.273-1.508c0.182-0.411,0.497-0.945,0.945-1.602c0.635-0.885,1.245-1.635,1.828-2.25
		c0.583-0.614,1.099-1.091,1.547-1.43c0.448-0.338,0.76-0.508,0.938-0.508c0.281,0,0.555,0.146,0.82,0.438
		c0.266,0.292,0.398,0.594,0.398,0.906c0,0.198-0.144,0.516-0.43,0.953c-0.287,0.438-0.74,0.992-1.359,1.664
		c-0.62,0.672-1.482,1.477-2.586,2.414l-0.297,0.859c-0.083,0.167-0.125,0.312-0.125,0.438c0,0.281,0.141,0.422,0.422,0.422
		c0.292,0,0.977-0.37,2.055-1.109c1.078-0.739,2.247-1.734,3.508-2.984c0.489-0.489,0.896-0.922,1.219-1.297
		c0.323-0.375,0.614-0.727,0.875-1.055c0.26-0.328,0.477-0.575,0.648-0.742c0.172-0.167,0.325-0.255,0.461-0.266
		c0.26-0.031,0.463,0.078,0.609,0.328c0.146,0.25,0.219,0.62,0.219,1.109c0,0.281-0.125,0.633-0.375,1.055s-0.719,1.141-1.406,2.156
		s-1.373,2.068-2.055,3.156c-0.683,1.089-1.378,2.315-2.086,3.68c0.031-0.031,0.352-0.344,0.961-0.938s1.252-1.213,1.93-1.859
		c0.677-0.646,1.234-1.164,1.672-1.555s0.984-0.846,1.641-1.367v1.047c-1.406,1.511-2.68,2.943-3.82,4.297s-2.021,2.438-2.641,3.25
		c-0.62,0.812-0.982,1.286-1.086,1.422c-0.281,0.364-0.534,0.706-0.758,1.023c-0.224,0.317-0.412,0.562-0.562,0.734
		c-0.151,0.172-0.273,0.258-0.367,0.258c-0.219,0-0.414-0.216-0.586-0.648c-0.172-0.433-0.258-0.815-0.258-1.148
		c0-0.302,0.057-0.568,0.172-0.797C94.521,24.807,96.204,21.875,98.818,17.698z"/>
</g>
<g>
	<path fill="#FFFFFF" d="M29.031,16.391v1.078c-0.99,0.927-1.831,1.675-2.523,2.242c-0.693,0.568-1.383,1.078-2.07,1.531
		s-1.258,0.776-1.711,0.969c-0.453,0.192-0.841,0.289-1.164,0.289c-0.771,0-1.401-0.287-1.891-0.859
		c-0.49-0.573-0.734-1.312-0.734-2.219c0-1.042,0.211-2.073,0.633-3.094c0.422-1.021,1.023-2.075,1.805-3.164
		c0.781-1.088,1.76-2.31,2.938-3.664c0.875-1,1.312-1.562,1.312-1.688c0-0.073-0.026-0.135-0.078-0.188
		c-0.052-0.052-0.109-0.078-0.172-0.078c-0.198,0-0.808,0.438-1.828,1.312c-1.021,0.875-2.331,2.162-3.93,3.859
		c-1.599,1.698-3.326,3.719-5.18,6.062c-0.104,0.125-0.435,0.55-0.992,1.273c-0.558,0.724-0.951,1.195-1.18,1.414
		c-0.229,0.219-0.427,0.328-0.594,0.328c-0.292,0-0.544-0.294-0.758-0.883c-0.214-0.588-0.32-1.216-0.32-1.883
		c0-0.406,0.133-0.844,0.398-1.312s0.844-1.31,1.734-2.523c0.891-1.213,1.627-2.237,2.211-3.07c0.583-0.833,1.224-1.844,1.922-3.031
		c0.489-0.823,0.852-1.479,1.086-1.969c0.234-0.489,0.352-0.922,0.352-1.297c0-0.323-0.094-0.484-0.281-0.484
		c-0.396,0-1.141,0.529-2.234,1.586c-1.094,1.058-2.445,2.628-4.055,4.711c-1.609,2.083-3.289,4.495-5.039,7.234
		c-0.573,0.938-0.979,1.568-1.219,1.891c-0.24,0.323-0.505,0.484-0.797,0.484c-0.365,0-0.706-0.388-1.023-1.164
		c-0.318-0.776-0.477-1.403-0.477-1.883c0-0.156,0.062-0.328,0.188-0.516c1.375-1.833,2.505-3.391,3.391-4.672
		c0.885-1.281,1.672-2.497,2.359-3.648c0.688-1.151,1.188-2.099,1.5-2.844c0.312-0.745,0.469-1.331,0.469-1.758
		c0-0.448-0.203-0.672-0.609-0.672c-0.333,0-0.901,0.214-1.703,0.641C7.963,5.162,6.95,5.745,5.727,6.484
		C4.502,7.224,3.521,7.789,2.781,8.18C2.042,8.57,1.49,8.766,1.125,8.766c-0.344,0-0.516-0.192-0.516-0.578
		c0-0.219,0.073-0.721,0.219-1.508c0.146-0.786,0.297-1.341,0.453-1.664C1.5,4.599,2.06,4.047,2.961,3.359
		c0.901-0.688,1.398-1.031,1.492-1.031c0.083,0,0.125,0.037,0.125,0.109c0,0.042-0.042,0.104-0.125,0.188
		C4.026,2.969,3.708,3.25,3.5,3.469C3.292,3.688,3.161,3.927,3.109,4.188C5.016,3.042,6.721,2.169,8.227,1.57
		c1.505-0.599,2.549-0.898,3.133-0.898c0.292,0,0.567,0.195,0.828,0.586c0.26,0.391,0.481,0.844,0.664,1.359
		c0.182,0.516,0.273,0.847,0.273,0.992c0,0.531-0.136,1.159-0.406,1.883c-0.271,0.724-0.638,1.565-1.102,2.523
		c-0.464,0.958-1.039,2.156-1.727,3.594c0.542-0.698,1.057-1.344,1.547-1.938c0.489-0.594,0.977-1.172,1.461-1.734
		s0.977-1.13,1.477-1.703c0.677-0.781,1.438-1.528,2.281-2.242c0.844-0.713,1.633-1.297,2.367-1.75s1.231-0.68,1.492-0.68
		c0.364,0,0.69,0.201,0.977,0.602c0.286,0.401,0.43,0.831,0.43,1.289c0,0.302-0.198,0.88-0.594,1.734
		c-0.396,0.854-0.974,1.948-1.734,3.281c-0.761,1.333-1.766,3.052-3.016,5.156c1.188-1.26,2.422-2.557,3.703-3.891
		c1.281-1.333,2.234-2.307,2.859-2.922c0.625-0.614,1.146-1.083,1.562-1.406c0.573-0.438,1.148-0.909,1.727-1.414
		c0.578-0.505,1.034-0.903,1.367-1.195c0.333-0.292,0.63-0.516,0.891-0.672c0.26-0.156,0.5-0.234,0.719-0.234
		c0.271,0,0.612,0.312,1.023,0.938c0.411,0.625,0.617,1.026,0.617,1.203c0,0.219-0.123,0.479-0.367,0.781
		c-0.245,0.302-0.753,0.865-1.523,1.688c-1.417,1.521-2.646,3.055-3.688,4.602c-1.042,1.547-1.831,2.958-2.367,4.234
		c-0.537,1.276-0.805,2.284-0.805,3.023c0,0.458,0.086,0.792,0.258,1c0.172,0.208,0.44,0.312,0.805,0.312
		c0.333,0,0.643-0.062,0.93-0.188c0.286-0.125,0.604-0.302,0.953-0.531c0.349-0.229,0.68-0.448,0.992-0.656
		c0.438-0.26,0.867-0.539,1.289-0.836s0.75-0.531,0.984-0.703S28.917,16.464,29.031,16.391z"/>
	<path fill="#FFFFFF" d="M35.481,15.391c-1.511,2-2.659,3.422-3.445,4.266c-0.787,0.844-1.43,1.266-1.93,1.266
		c-0.396,0-0.761-0.164-1.094-0.492c-0.333-0.328-0.591-0.771-0.773-1.328c-0.183-0.557-0.273-1.153-0.273-1.789
		c0-0.417,0.039-0.792,0.117-1.125c0.078-0.333,0.227-0.7,0.445-1.102c0.219-0.401,0.508-0.836,0.867-1.305s0.799-1,1.32-1.594
		c0.312-0.364,0.575-0.672,0.789-0.922c0.213-0.25,0.422-0.419,0.625-0.508c0.203-0.088,0.534-0.133,0.992-0.133
		c0.333,0,0.651,0.044,0.953,0.133c0.302,0.089,0.453,0.18,0.453,0.273c0,0.188-0.154,0.526-0.461,1.016
		c-0.308,0.49-0.802,1.086-1.484,1.789c-0.683,0.703-1.472,1.394-2.367,2.07c-0.198,0.615-0.297,1.083-0.297,1.406
		c0,0.448,0.172,0.672,0.516,0.672c0.125,0,0.333-0.106,0.625-0.32c0.292-0.213,0.784-0.625,1.477-1.234
		c0.692-0.609,1.315-1.148,1.867-1.617c0.406-0.354,0.877-0.883,1.414-1.586c0.536-0.703,0.971-1.231,1.305-1.586
		c0.771-0.812,1.297-1.341,1.578-1.586c0.281-0.245,0.552-0.367,0.812-0.367c0.25,0,0.419,0.078,0.508,0.234
		c0.088,0.156,0.133,0.474,0.133,0.953c0,0.219-0.021,0.396-0.062,0.531c-0.042,0.136-0.128,0.31-0.258,0.523
		c-0.13,0.214-0.394,0.607-0.789,1.18c-0.396,0.573-0.865,1.25-1.406,2.031c-0.292,0.417-0.547,0.873-0.766,1.367
		c-0.219,0.495-0.328,0.867-0.328,1.117c0,0.542,0.213,0.812,0.641,0.812c0.354,0,0.766-0.146,1.234-0.438
		c0.469-0.292,1.188-0.817,2.156-1.578v1.047c-1.219,1.125-2.12,1.943-2.703,2.453c-0.583,0.511-1.089,0.896-1.516,1.156
		c-0.427,0.261-0.833,0.391-1.219,0.391c-0.875,0-1.312-0.521-1.312-1.562c0-0.396,0.13-0.93,0.391-1.602
		C34.476,17.633,34.898,16.662,35.481,15.391z"/>
	<path fill="#FFFFFF" d="M45.119,8.344h0.672c0.552-0.989,1.052-1.69,1.5-2.102c0.448-0.411,0.958-0.617,1.531-0.617
		c0.573,0,0.859,0.13,0.859,0.391c0,0.125-0.224,0.464-0.672,1.016c-0.448,0.552-0.787,1.016-1.016,1.391
		c0.354,0.042,0.669,0.078,0.945,0.109c0.276,0.031,0.492,0.058,0.648,0.078c-0.594,1.104-1.339,2.234-2.234,3.391
		c-0.292-0.021-0.537-0.039-0.734-0.055c-0.198-0.016-0.398-0.031-0.602-0.047s-0.451-0.034-0.742-0.055
		c-0.562,0.906-1.034,1.716-1.414,2.43c-0.38,0.714-0.672,1.367-0.875,1.961s-0.305,1.156-0.305,1.688
		c0,0.719,0.286,1.078,0.859,1.078c0.396,0,0.914-0.211,1.555-0.633s1.497-1.07,2.57-1.945v1.047
		c-2.812,3.052-4.891,4.578-6.234,4.578c-0.469,0-0.847-0.183-1.133-0.547c-0.287-0.364-0.43-0.833-0.43-1.406
		c0-0.385,0.081-0.844,0.242-1.375c0.161-0.531,0.45-1.333,0.867-2.406c-0.146,0.125-0.284,0.248-0.414,0.367
		c-0.13,0.12-0.25,0.229-0.359,0.328c-0.109,0.099-0.227,0.203-0.352,0.312s-0.25,0.222-0.375,0.336v-1.078
		c1.094-0.917,2.417-2.526,3.969-4.828c-0.156-0.01-0.302-0.018-0.438-0.023c-0.136-0.005-0.297-0.008-0.484-0.008
		c-0.615,0-1.073,0.042-1.375,0.125c-0.125,0.031-0.242,0.065-0.352,0.102C40.689,11.982,40.613,12,40.572,12
		c-0.042,0-0.062-0.031-0.062-0.094c0-0.344,0.213-0.859,0.641-1.547c0.344-0.583,0.669-1.016,0.977-1.297
		c0.307-0.281,0.682-0.471,1.125-0.57C43.694,8.394,44.316,8.344,45.119,8.344z"/>
	<path fill="#FFFFFF" d="M54.194,15.391c-1.511,2-2.659,3.422-3.445,4.266c-0.787,0.844-1.43,1.266-1.93,1.266
		c-0.396,0-0.761-0.164-1.094-0.492c-0.333-0.328-0.591-0.771-0.773-1.328c-0.183-0.557-0.273-1.153-0.273-1.789
		c0-0.417,0.039-0.792,0.117-1.125c0.078-0.333,0.227-0.7,0.445-1.102c0.219-0.401,0.508-0.836,0.867-1.305s0.799-1,1.32-1.594
		c0.312-0.364,0.575-0.672,0.789-0.922c0.213-0.25,0.422-0.419,0.625-0.508c0.203-0.088,0.534-0.133,0.992-0.133
		c0.333,0,0.651,0.044,0.953,0.133c0.302,0.089,0.453,0.18,0.453,0.273c0,0.188-0.154,0.526-0.461,1.016
		c-0.308,0.49-0.802,1.086-1.484,1.789c-0.683,0.703-1.472,1.394-2.367,2.07c-0.198,0.615-0.297,1.083-0.297,1.406
		c0,0.448,0.172,0.672,0.516,0.672c0.125,0,0.333-0.106,0.625-0.32c0.292-0.213,0.784-0.625,1.477-1.234
		c0.692-0.609,1.315-1.148,1.867-1.617c0.406-0.354,0.877-0.883,1.414-1.586c0.536-0.703,0.971-1.231,1.305-1.586
		c0.771-0.812,1.297-1.341,1.578-1.586c0.281-0.245,0.552-0.367,0.812-0.367c0.25,0,0.419,0.078,0.508,0.234
		c0.088,0.156,0.133,0.474,0.133,0.953c0,0.219-0.021,0.396-0.062,0.531c-0.042,0.136-0.128,0.31-0.258,0.523
		c-0.13,0.214-0.394,0.607-0.789,1.18c-0.396,0.573-0.865,1.25-1.406,2.031c-0.292,0.417-0.547,0.873-0.766,1.367
		c-0.219,0.495-0.328,0.867-0.328,1.117c0,0.542,0.213,0.812,0.641,0.812c0.354,0,0.766-0.146,1.234-0.438
		c0.469-0.292,1.188-0.817,2.156-1.578v1.047c-1.219,1.125-2.12,1.943-2.703,2.453c-0.583,0.511-1.089,0.896-1.516,1.156
		c-0.427,0.261-0.833,0.391-1.219,0.391c-0.875,0-1.312-0.521-1.312-1.562c0-0.396,0.13-0.93,0.391-1.602
		C53.188,17.633,53.61,16.662,54.194,15.391z"/>
	<path fill="#FFFFFF" d="M60.175,13.656c1.583-1.438,3.12-2.505,4.609-3.203c1.489-0.698,2.641-1.047,3.453-1.047
		c0.219,0,0.422,0.091,0.609,0.273c0.188,0.183,0.336,0.394,0.445,0.633c0.109,0.24,0.164,0.417,0.164,0.531
		c0,0.188-0.073,0.326-0.219,0.414c-0.146,0.089-0.401,0.195-0.766,0.32c0.073,0.167,0.167,0.38,0.281,0.641
		c0.114,0.261,0.203,0.472,0.266,0.633c0.062,0.162,0.094,0.305,0.094,0.43c0,0.25-0.253,0.716-0.758,1.398
		c-0.505,0.683-0.859,1.185-1.062,1.508c-0.203,0.323-0.305,0.719-0.305,1.188c0,0.771,0.354,1.156,1.062,1.156
		c0.729,0,1.87-0.682,3.422-2.047v0.953c-2.636,2.927-4.521,4.391-5.656,4.391c-0.406,0-0.695-0.133-0.867-0.398
		s-0.258-0.659-0.258-1.18c0-0.823,0.297-2.016,0.891-3.578c-1.521,1.688-2.651,2.888-3.391,3.602
		c-0.74,0.714-1.349,1.07-1.828,1.07c-0.229,0-0.516-0.198-0.859-0.594c-0.344-0.396-0.648-0.909-0.914-1.539
		c-0.266-0.63-0.398-1.284-0.398-1.961c0-0.489,0.047-0.898,0.141-1.227s0.276-0.664,0.547-1.008
		C59.148,14.672,59.581,14.219,60.175,13.656z M67.659,11.938c-2.708,1.24-4.638,2.292-5.789,3.156
		c-1.151,0.865-1.727,1.755-1.727,2.672c0,0.333,0.057,0.607,0.172,0.82c0.114,0.214,0.271,0.32,0.469,0.32
		c0.114,0,0.317-0.073,0.609-0.219c1.094-0.646,2.094-1.487,3-2.523C65.3,15.128,66.388,13.719,67.659,11.938z"/>
	<path fill="#FFFFFF" d="M78,16.281v1.156c-2.177,2.886-3.948,4.328-5.312,4.328c-0.74,0-1.32-0.403-1.742-1.211
		c-0.422-0.807-0.633-1.867-0.633-3.18c0-1.062,0.25-2.325,0.75-3.789c0.5-1.463,1.169-2.948,2.008-4.453
		c0.838-1.505,1.708-2.817,2.609-3.938c0.901-1.12,1.737-1.903,2.508-2.352c0.312-0.188,0.557-0.281,0.734-0.281
		c0.219,0,0.364,0.097,0.438,0.289c0.073,0.193,0.109,0.523,0.109,0.992c0,1.448-0.589,3.227-1.766,5.336
		c-1.177,2.109-2.818,4.263-4.922,6.461c-0.104,0.542-0.156,0.958-0.156,1.25c0,0.667,0.143,1.208,0.43,1.625
		c0.286,0.417,0.685,0.625,1.195,0.625c0.26,0,0.542-0.102,0.844-0.305c0.302-0.203,0.62-0.456,0.953-0.758
		C76.38,17.776,77.031,17.177,78,16.281z M73.328,13.469c0.542-0.531,1.065-1.135,1.57-1.812c0.505-0.677,0.981-1.401,1.43-2.172
		c0.448-0.771,0.799-1.463,1.055-2.078c0.255-0.614,0.383-1.078,0.383-1.391c0-0.239-0.083-0.359-0.25-0.359
		c-0.062,0-0.183,0.058-0.359,0.172c-0.636,0.521-1.349,1.539-2.141,3.055C74.224,10.398,73.661,11.927,73.328,13.469z"/>
	<path fill="#FFFFFF" d="M84.528,16.453v1.141c-1.011,1.302-1.953,2.284-2.828,2.945c-0.875,0.662-1.62,0.992-2.234,0.992
		c-0.854,0-1.49-0.448-1.906-1.344c-0.417-0.896-0.625-1.875-0.625-2.938c0-0.406,0.042-0.794,0.125-1.164
		c0.083-0.37,0.182-0.674,0.297-0.914c0.114-0.239,0.328-0.614,0.641-1.125c1.479-2.302,2.833-3.453,4.062-3.453
		c0.635,0,0.953,0.245,0.953,0.734c0,0.333-0.206,0.854-0.617,1.562c-0.412,0.708-0.779,1.214-1.102,1.516
		c-0.906,0.875-1.498,1.484-1.773,1.828c-0.276,0.344-0.414,0.734-0.414,1.172c0,0.375,0.141,0.688,0.422,0.938
		s0.646,0.375,1.094,0.375c0.489,0,1.028-0.18,1.617-0.539C82.828,17.82,83.591,17.245,84.528,16.453z M83.466,9.469
		c-0.261,0-0.508-0.099-0.742-0.297c-0.234-0.198-0.352-0.448-0.352-0.75c0-0.458,0.219-0.969,0.656-1.531s0.891-0.844,1.359-0.844
		c0.312,0,0.573,0.097,0.781,0.289c0.208,0.193,0.312,0.472,0.312,0.836c0,0.448-0.214,0.943-0.641,1.484
		C84.414,9.198,83.955,9.469,83.466,9.469z"/>
	<path fill="#FFFFFF" d="M89.072,8.344h0.672c0.552-0.989,1.052-1.69,1.5-2.102c0.448-0.411,0.958-0.617,1.531-0.617
		c0.573,0,0.859,0.13,0.859,0.391c0,0.125-0.224,0.464-0.672,1.016c-0.448,0.552-0.787,1.016-1.016,1.391
		c0.354,0.042,0.669,0.078,0.945,0.109c0.276,0.031,0.492,0.058,0.648,0.078c-0.594,1.104-1.339,2.234-2.234,3.391
		c-0.292-0.021-0.537-0.039-0.734-0.055c-0.198-0.016-0.398-0.031-0.602-0.047s-0.451-0.034-0.742-0.055
		c-0.562,0.906-1.034,1.716-1.414,2.43c-0.38,0.714-0.672,1.367-0.875,1.961s-0.305,1.156-0.305,1.688
		c0,0.719,0.286,1.078,0.859,1.078c0.396,0,0.914-0.211,1.555-0.633s1.497-1.07,2.57-1.945v1.047
		c-2.812,3.052-4.891,4.578-6.234,4.578c-0.469,0-0.847-0.183-1.133-0.547c-0.287-0.364-0.43-0.833-0.43-1.406
		c0-0.385,0.081-0.844,0.242-1.375c0.161-0.531,0.45-1.333,0.867-2.406c-0.146,0.125-0.284,0.248-0.414,0.367
		c-0.13,0.12-0.25,0.229-0.359,0.328c-0.109,0.099-0.227,0.203-0.352,0.312s-0.25,0.222-0.375,0.336v-1.078
		c1.094-0.917,2.417-2.526,3.969-4.828c-0.156-0.01-0.302-0.018-0.438-0.023c-0.136-0.005-0.297-0.008-0.484-0.008
		c-0.615,0-1.073,0.042-1.375,0.125c-0.125,0.031-0.242,0.065-0.352,0.102C84.642,11.982,84.566,12,84.525,12
		c-0.042,0-0.062-0.031-0.062-0.094c0-0.344,0.213-0.859,0.641-1.547c0.344-0.583,0.669-1.016,0.977-1.297
		c0.307-0.281,0.682-0.471,1.125-0.57C87.647,8.394,88.27,8.344,89.072,8.344z"/>
	<path fill="#FFFFFF" d="M97.991,17.062l-2.781,2.359c-1.323,1.156-2.208,1.734-2.656,1.734c-0.406,0-0.833-0.466-1.281-1.398
		c-0.448-0.932-0.672-1.747-0.672-2.445c0-0.594,0.091-1.096,0.273-1.508c0.182-0.411,0.497-0.945,0.945-1.602
		c0.635-0.885,1.245-1.635,1.828-2.25c0.583-0.614,1.099-1.091,1.547-1.43c0.448-0.338,0.76-0.508,0.938-0.508
		c0.281,0,0.555,0.146,0.82,0.438c0.266,0.292,0.398,0.594,0.398,0.906c0,0.198-0.144,0.516-0.43,0.953
		c-0.287,0.438-0.74,0.992-1.359,1.664c-0.62,0.672-1.482,1.477-2.586,2.414l-0.297,0.859c-0.083,0.167-0.125,0.312-0.125,0.438
		c0,0.281,0.141,0.422,0.422,0.422c0.292,0,0.977-0.37,2.055-1.109c1.078-0.739,2.247-1.734,3.508-2.984
		c0.489-0.489,0.896-0.922,1.219-1.297c0.323-0.375,0.614-0.727,0.875-1.055c0.26-0.328,0.477-0.575,0.648-0.742
		c0.172-0.167,0.325-0.255,0.461-0.266c0.26-0.031,0.463,0.078,0.609,0.328c0.146,0.25,0.219,0.62,0.219,1.109
		c0,0.281-0.125,0.633-0.375,1.055s-0.719,1.141-1.406,2.156s-1.373,2.068-2.055,3.156c-0.683,1.089-1.378,2.315-2.086,3.68
		c0.031-0.031,0.352-0.344,0.961-0.938s1.252-1.213,1.93-1.859c0.677-0.646,1.234-1.164,1.672-1.555s0.984-0.846,1.641-1.367v1.047
		c-1.406,1.511-2.68,2.943-3.82,4.297s-2.021,2.438-2.641,3.25c-0.62,0.812-0.982,1.286-1.086,1.422
		c-0.281,0.364-0.534,0.706-0.758,1.023c-0.224,0.317-0.412,0.562-0.562,0.734c-0.151,0.172-0.273,0.258-0.367,0.258
		c-0.219,0-0.414-0.216-0.586-0.648c-0.172-0.433-0.258-0.815-0.258-1.148c0-0.302,0.057-0.568,0.172-0.797
		C93.694,24.172,95.376,21.24,97.991,17.062z"/>
</g>
</svg>
